<?xml version="1.0" standalone="no"?>
<!DOCTYPE svg PUBLIC "-//W3C//DTD SVG 20010904//EN"
 "http://www.w3.org/TR/2001/REC-SVG-20010904/DTD/svg10.dtd">
<svg version="1.0" xmlns="http://www.w3.org/2000/svg"
 width="512.000000pt" height="512.000000pt" viewBox="0 0 512.000000 512.000000"
 preserveAspectRatio="xMidYMid meet">

<g transform="translate(0.000000,512.000000) scale(0.100000,-0.100000)"
fill="#000000" stroke="none">
<path d="M1015 4661 c-91 -42 -115 -97 -115 -266 l0 -125 410 0 411 0 24 -25
c23 -23 25 -31 25 -130 l0 -105 895 0 895 0 0 255 c0 208 -3 263 -15 293 -21
49 -52 81 -100 103 -38 18 -94 19 -1215 19 -1121 0 -1177 -1 -1215 -19z m1606
-252 c48 -25 44 -105 -7 -128 -17 -7 -140 -11 -389 -11 -363 0 -364 0 -389 23
-36 32 -39 74 -6 107 19 19 33 20 396 20 245 0 382 -4 395 -11z"/>
<path d="M130 3640 l0 -480 385 0 385 0 228 -171 227 -170 3 170 2 171 130 0
130 0 0 480 0 480 -745 0 -745 0 0 -480z m394 89 c37 -17 51 -60 32 -97 -19
-37 -32 -42 -110 -42 -80 0 -116 24 -116 75 0 50 37 75 111 75 32 0 69 -5 83
-11z m397 -18 c26 -32 24 -67 -6 -96 -21 -22 -33 -25 -95 -25 -62 0 -74 3 -95
25 -27 26 -31 54 -14 86 16 30 47 39 123 36 58 -2 71 -6 87 -26z m363 8 c19
-15 26 -30 26 -54 0 -52 -36 -75 -119 -75 -96 0 -136 38 -111 105 13 33 40 44
116 44 48 1 67 -4 88 -20z"/>
<path d="M1770 3457 l0 -404 -23 -21 c-21 -20 -34 -22 -130 -22 l-107 0 0
-160 c0 -88 2 -160 5 -160 4 0 1837 1056 1990 1146 l40 24 -887 0 -888 0 0
-403z"/>
<path d="M900 2655 c0 -283 2 -316 16 -311 15 6 295 166 407 233 l57 35 -227
172 c-126 94 -234 175 -240 180 -10 6 -13 -59 -13 -309z"/>
<path d="M130 1995 c0 -103 1 -105 20 -95 34 18 335 192 339 196 2 2 -77 4
-177 4 l-182 0 0 -105z"/>
</g>
</svg>
